# Blender v2.80 (sub 75) OBJ File: 'mortar.blend'
# www.blender.org
o Cube.008_Cube.015
v -7.000000 -6.000000 2.000000
v -7.000000 6.000000 2.000000
v -7.000000 -6.000000 -2.000000
v -7.000000 6.000000 -2.000000
v -5.000000 -6.000000 2.000000
v -5.000000 6.000000 2.000000
v -5.000000 -6.000000 -2.000000
v -5.000000 6.000000 -2.000000
vt 0.625000 0.000000
vt 0.375000 0.250000
vt 0.375000 0.000000
vt 0.625000 0.250000
vt 0.375000 0.500000
vt 0.625000 0.500000
vt 0.375000 0.750000
vt 0.625000 0.750000
vt 0.375000 1.000000
vt 0.125000 0.750000
vt 0.125000 0.500000
vt 0.875000 0.500000
vt 0.625000 1.000000
vt 0.875000 0.750000
vn -1.0000 0.0000 0.0000
vn 0.0000 0.0000 -1.0000
vn 1.0000 0.0000 0.0000
vn 0.0000 0.0000 1.0000
vn 0.0000 -1.0000 0.0000
vn 0.0000 1.0000 0.0000
s off
f 2/1/1 3/2/1 1/3/1
f 4/4/2 7/5/2 3/2/2
f 8/6/3 5/7/3 7/5/3
f 6/8/4 1/9/4 5/7/4
f 7/5/5 1/10/5 3/11/5
f 4/12/6 6/8/6 8/6/6
f 2/1/1 4/4/1 3/2/1
f 4/4/2 8/6/2 7/5/2
f 8/6/3 6/8/3 5/7/3
f 6/8/4 2/13/4 1/9/4
f 7/5/5 5/7/5 1/10/5
f 4/12/6 2/14/6 6/8/6
o Cube.005_Cube.014
v 5.000000 -6.000000 2.000000
v 5.000000 6.000000 2.000000
v 5.000000 -6.000000 -2.000000
v 5.000000 6.000000 -2.000000
v 7.000000 -6.000000 2.000000
v 7.000000 6.000000 2.000000
v 7.000000 -6.000000 -2.000000
v 7.000000 6.000000 -2.000000
vt 0.625000 0.000000
vt 0.375000 0.250000
vt 0.375000 0.000000
vt 0.625000 0.250000
vt 0.375000 0.500000
vt 0.625000 0.500000
vt 0.375000 0.750000
vt 0.625000 0.750000
vt 0.375000 1.000000
vt 0.125000 0.750000
vt 0.125000 0.500000
vt 0.875000 0.500000
vt 0.625000 1.000000
vt 0.875000 0.750000
vn -1.0000 0.0000 0.0000
vn 0.0000 0.0000 -1.0000
vn 1.0000 0.0000 0.0000
vn 0.0000 0.0000 1.0000
vn 0.0000 -1.0000 0.0000
vn 0.0000 1.0000 0.0000
s off
f 10/15/7 11/16/7 9/17/7
f 12/18/8 15/19/8 11/16/8
f 16/20/9 13/21/9 15/19/9
f 14/22/10 9/23/10 13/21/10
f 15/19/11 9/24/11 11/25/11
f 12/26/12 14/22/12 16/20/12
f 10/15/7 12/18/7 11/16/7
f 12/18/8 16/20/8 15/19/8
f 16/20/9 14/22/9 13/21/9
f 14/22/10 10/27/10 9/23/10
f 15/19/11 13/21/11 9/24/11
f 12/26/12 10/28/12 14/22/12
o Mortar-BasePlate.001_Cube.018
v -6.000000 -6.000000 6.000000
v -6.000000 -5.000000 6.000000
v -6.000000 -6.000000 -6.000000
v -6.000000 -5.000000 -6.000000
v 6.000000 -6.000000 6.000000
v 6.000000 -5.000000 6.000000
v 6.000000 -6.000000 -6.000000
v 6.000000 -5.000000 -6.000000
vt 0.625000 0.000000
vt 0.375000 0.250000
vt 0.375000 0.000000
vt 0.625000 0.250000
vt 0.375000 0.500000
vt 0.625000 0.500000
vt 0.375000 0.750000
vt 0.625000 0.750000
vt 0.375000 1.000000
vt 0.125000 0.750000
vt 0.125000 0.500000
vt 0.875000 0.500000
vt 0.625000 1.000000
vt 0.875000 0.750000
vn -1.0000 0.0000 0.0000
vn 0.0000 0.0000 -1.0000
vn 1.0000 0.0000 0.0000
vn 0.0000 0.0000 1.0000
vn 0.0000 -1.0000 0.0000
vn 0.0000 1.0000 0.0000
s off
f 18/29/13 19/30/13 17/31/13
f 20/32/14 23/33/14 19/30/14
f 24/34/15 21/35/15 23/33/15
f 22/36/16 17/37/16 21/35/16
f 23/33/17 17/38/17 19/39/17
f 20/40/18 22/36/18 24/34/18
f 18/29/13 20/32/13 19/30/13
f 20/32/14 24/34/14 23/33/14
f 24/34/15 22/36/15 21/35/15
f 22/36/16 18/41/16 17/37/16
f 23/33/17 21/35/17 17/38/17
f 20/40/18 18/42/18 22/36/18
o Cube.009_Cube.001
v -5.000000 -2.000000 5.000000
v -4.000000 8.000000 4.000000
v -5.000000 -2.000000 -5.000000
v -4.000000 8.000000 -4.000000
v 5.000000 -2.000000 5.000000
v 4.000000 8.000000 4.000000
v 5.000000 -2.000000 -5.000000
v 4.000000 8.000000 -4.000000
v -5.000000 8.000000 5.000000
v -5.000000 8.000000 -5.000000
v 5.000000 8.000000 -5.000000
v 5.000000 8.000000 5.000000
v -4.000000 -1.000000 4.000000
v -4.000000 -1.000000 -4.000000
v 4.000000 -1.000000 -4.000000
v 4.000000 -1.000000 4.000000
vt 0.625000 0.000000
vt 0.375000 0.250000
vt 0.375000 0.000000
vt 0.625000 0.250000
vt 0.375000 0.500000
vt 0.625000 0.500000
vt 0.375000 0.750000
vt 0.625000 0.750000
vt 0.375000 1.000000
vt 0.125000 0.750000
vt 0.125000 0.500000
vt 0.650000 0.725000
vt 0.850000 0.725000
vt 0.850000 0.725000
vt 0.875000 0.500000
vt 0.875000 0.750000
vt 0.850000 0.525000
vt 0.650000 0.525000
vt 0.850000 0.525000
vt 0.650000 0.725000
vt 0.650000 0.525000
vt 0.625000 1.000000
vn -1.0000 0.0000 0.0000
vn 0.0000 0.0000 -1.0000
vn 1.0000 0.0000 0.0000
vn 0.0000 0.0000 1.0000
vn 0.0000 -1.0000 0.0000
vn 0.0000 1.0000 0.0000
s off
f 33/43/19 27/44/19 25/45/19
f 34/46/20 31/47/20 27/44/20
f 35/48/21 29/49/21 31/47/21
f 36/50/22 25/51/22 29/49/22
f 31/47/23 25/52/23 27/53/23
f 30/54/20 37/55/20 26/56/20
f 26/56/24 34/57/24 33/58/24
f 28/59/24 35/48/24 34/57/24
f 32/60/24 36/50/24 35/48/24
f 30/54/24 33/58/24 36/50/24
f 38/61/24 40/62/24 39/63/24
f 28/59/22 39/63/22 32/60/22
f 32/60/19 40/62/19 30/54/19
f 26/56/21 38/61/21 28/59/21
f 33/43/19 34/46/19 27/44/19
f 34/46/20 35/48/20 31/47/20
f 35/48/21 36/50/21 29/49/21
f 36/50/22 33/64/22 25/51/22
f 31/47/23 29/49/23 25/52/23
f 30/54/20 40/62/20 37/55/20
f 26/56/24 28/59/24 34/57/24
f 28/59/24 32/60/24 35/48/24
f 32/60/24 30/54/24 36/50/24
f 30/54/24 26/56/24 33/58/24
f 38/61/24 37/55/24 40/62/24
f 28/59/22 38/61/22 39/63/22
f 32/60/19 39/63/19 40/62/19
f 26/56/21 37/55/21 38/61/21
