# Blender v2.80 (sub 75) OBJ File: 'turret.blend'
# www.blender.org
o AC-BasePlate_Cube.010
v 6.042746 -6.000000 -5.956947
v 6.042746 -5.000000 -5.956947
v 5.956947 -6.000000 6.042746
v 5.956947 -5.000000 6.042746
v -5.956947 -6.000000 -6.042746
v -5.956947 -5.000000 -6.042746
v -6.042746 -6.000000 5.956947
v -6.042746 -5.000000 5.956947
vt 0.625000 0.000000
vt 0.375000 0.250000
vt 0.375000 0.000000
vt 0.625000 0.250000
vt 0.375000 0.500000
vt 0.625000 0.500000
vt 0.375000 0.750000
vt 0.625000 0.750000
vt 0.375000 1.000000
vt 0.125000 0.750000
vt 0.125000 0.500000
vt 0.875000 0.500000
vt 0.625000 1.000000
vt 0.875000 0.750000
vn 1.0000 0.0000 0.0071
vn -0.0071 0.0000 1.0000
vn -1.0000 0.0000 -0.0071
vn 0.0071 0.0000 -1.0000
vn 0.0000 -1.0000 0.0000
vn 0.0000 1.0000 0.0000
s off
f 2/1/1 3/2/1 1/3/1
f 4/4/2 7/5/2 3/2/2
f 8/6/3 5/7/3 7/5/3
f 6/8/4 1/9/4 5/7/4
f 7/5/5 1/10/5 3/11/5
f 4/12/6 6/8/6 8/6/6
f 2/1/1 4/4/1 3/2/1
f 4/4/2 8/6/2 7/5/2
f 8/6/3 6/8/3 5/7/3
f 6/8/4 2/13/4 1/9/4
f 7/5/5 5/7/5 1/10/5
f 4/12/6 2/14/6 6/8/6
o Cube.009_Cube.011
v 7.242716 -4.200000 -5.948367
v 7.242716 2.200000 -5.948367
v 7.156916 -4.200000 6.051326
v 7.156916 2.200000 6.051326
v 0.842879 -4.200000 -5.994127
v 0.842879 2.200000 -5.994127
v 0.757080 -4.200000 6.005566
v 0.757080 2.200000 6.005566
v 8.042695 -5.000000 -5.942647
v 8.042695 3.000000 -5.942647
v 7.956896 3.000000 6.057046
v 7.956896 -5.000000 6.057046
v -0.042900 -5.000000 5.999846
v -0.042900 3.000000 5.999846
v 0.042900 3.000000 -5.999846
v 0.042900 -5.000000 -5.999846
v 7.242716 -4.200000 -5.948367
v 7.242716 2.200000 -5.948367
v 7.156916 2.200000 6.051326
v 7.156916 -4.200000 6.051326
v 0.757080 -4.200000 6.005566
v 0.757080 2.200000 6.005566
v 0.842879 2.200000 -5.994127
v 0.842879 -4.200000 -5.994127
v 7.235566 -4.200000 -4.948392
v 7.235566 2.200000 -4.948392
v 7.164066 2.200000 5.051352
v 7.164066 -4.200000 5.051352
v 0.764230 -4.200000 5.005592
v 0.764230 2.200000 5.005592
v 0.835729 2.200000 -4.994152
v 0.835729 -4.200000 -4.994152
vt 0.625000 0.000000
vt 0.375000 0.250000
vt 0.375000 0.000000
vt 0.600000 0.275000
vt 0.600000 0.475000
vt 0.600000 0.275000
vt 0.625000 0.500000
vt 0.375000 0.750000
vt 0.375000 0.500000
vt 0.400000 0.775000
vt 0.600000 0.775000
vt 0.400000 0.775000
vt 0.125000 0.750000
vt 0.125000 0.500000
vt 0.875000 0.500000
vt 0.625000 0.750000
vt 0.400000 0.975000
vt 0.625000 1.000000
vt 0.375000 1.000000
vt 0.625000 0.250000
vt 0.400000 0.275000
vt 0.600000 0.475000
vt 0.400000 0.475000
vt 0.600000 0.775000
vt 0.600000 0.975000
vt 0.400000 0.475000
vt 0.600000 0.475000
vt 0.400000 0.975000
vt 0.400000 0.975000
vt 0.400000 0.275000
vt 0.600000 0.975000
vt 0.600000 0.275000
vt 0.400000 0.475000
vt 0.400000 0.275000
vt 0.600000 0.775000
vt 0.400000 0.775000
vt 0.600000 0.975000
vt 0.875000 0.750000
vn 1.0000 0.0000 0.0071
vn 0.0000 0.0000 1.0000
vn -1.0000 0.0000 -0.0071
vn 0.0000 -1.0000 0.0000
vn 0.0000 1.0000 -0.0000
vn 0.0072 0.0000 -1.0000
vn -0.0072 0.0000 1.0000
vn -0.0071 -0.0000 1.0000
vn 0.0071 -0.0000 -1.0000
vn -1.0000 0.0000 -0.0072
s off
f 18/15/7 20/16/7 17/17/7
f 12/18/8 30/19/8 27/20/8
f 22/21/9 24/22/9 21/23/9
f 13/24/8 31/25/8 32/26/8
f 21/23/10 17/27/10 20/28/10
f 19/29/11 23/30/11 22/21/11
f 9/31/12 18/32/12 17/33/12
f 12/18/13 20/16/13 19/34/13
f 11/35/13 21/23/13 20/16/13
f 16/36/14 19/34/14 22/21/14
f 15/37/13 22/21/13 21/23/13
f 14/38/12 24/22/12 23/30/12
f 13/24/15 17/33/15 24/22/15
f 10/39/15 23/30/15 18/32/15
f 29/40/7 38/41/7 30/19/7
f 32/26/11 33/42/11 25/43/11
f 11/35/8 27/20/8 28/44/8
f 9/31/8 32/26/8 25/43/8
f 16/36/8 29/40/8 30/19/8
f 15/37/8 28/44/8 29/40/8
f 10/39/8 25/43/8 26/45/8
f 14/38/8 26/45/8 31/25/8
f 35/46/13 37/47/13 36/48/13
f 39/49/12 33/42/12 40/50/12
f 28/44/11 37/47/11 29/40/11
f 25/43/9 34/51/9 26/45/9
f 26/45/10 39/49/10 31/25/10
f 31/25/7 40/50/7 32/26/7
f 30/19/10 35/46/10 27/20/10
f 27/20/16 36/48/16 28/44/16
f 18/15/7 19/34/7 20/16/7
f 12/18/8 16/36/8 30/19/8
f 22/21/9 23/30/9 24/22/9
f 13/24/8 14/38/8 31/25/8
f 21/23/10 24/22/10 17/27/10
f 19/29/11 18/52/11 23/30/11
f 9/31/15 10/39/15 18/32/15
f 12/18/14 11/35/14 20/16/14
f 11/35/14 15/37/14 21/23/14
f 16/36/14 12/18/14 19/34/14
f 15/37/14 16/36/14 22/21/14
f 14/38/12 13/24/12 24/22/12
f 13/24/15 9/31/15 17/33/15
f 10/39/15 14/38/15 23/30/15
f 29/40/7 37/47/7 38/41/7
f 32/26/11 40/50/11 33/42/11
f 11/35/8 12/18/8 27/20/8
f 9/31/8 13/24/8 32/26/8
f 16/36/8 15/37/8 29/40/8
f 15/37/8 11/35/8 28/44/8
f 10/39/8 9/31/8 25/43/8
f 14/38/8 10/39/8 26/45/8
f 35/46/14 38/41/14 37/47/14
f 39/49/12 34/51/12 33/42/12
f 28/44/11 36/48/11 37/47/11
f 25/43/9 33/42/9 34/51/9
f 26/45/10 34/51/10 39/49/10
f 31/25/7 39/49/7 40/50/7
f 30/19/10 38/41/10 35/46/10
f 27/20/16 35/46/16 36/48/16
o Cube.010_Cube.012
v -0.771380 -4.900000 -4.005619
v -0.771380 2.900000 -4.005619
v -0.828579 -4.900000 3.994179
v -0.828579 2.900000 3.994179
v -6.964071 -4.000000 -5.049922
v -6.964071 2.000000 -5.049922
v -7.028420 -4.000000 3.949848
v -7.028420 2.000000 3.949848
v -0.035750 -4.000000 4.999872
v 0.035750 -4.000000 -4.999872
v 0.035750 2.000000 -4.999872
v -0.035750 2.000000 4.999872
v -7.035571 -4.000000 4.949822
v -7.035571 2.000000 4.949822
v -6.971221 2.000000 -4.049947
v -6.971221 -4.000000 -4.049947
v -0.828579 -4.000000 3.994178
v -0.771380 -4.000000 -4.005618
v -0.771380 2.000000 -4.005618
v -0.828579 2.000000 3.994178
v -8.028396 -4.900000 3.942699
v -8.028396 2.900000 3.942699
v -7.971196 2.900000 -4.057098
v -7.971196 -4.900000 -4.057098
vt 0.625000 0.000000
vt 0.375000 0.250000
vt 0.375000 0.000000
vt 0.625000 0.250000
vt 0.375000 0.500000
vt 0.625000 0.525000
vt 0.375000 0.725000
vt 0.375000 0.525000
vt 0.625000 0.750000
vt 0.375000 1.000000
vt 0.375000 0.750000
vt 0.150000 0.725000
vt 0.150000 0.525000
vt 0.850000 0.525000
vt 0.625000 0.725000
vt 0.150000 0.525000
vt 0.125000 0.750000
vt 0.125000 0.500000
vt 0.850000 0.725000
vt 0.875000 0.500000
vt 0.875000 0.750000
vt 0.375000 0.525000
vt 0.850000 0.525000
vt 0.625000 0.500000
vt 0.625000 0.525000
vt 0.625000 0.725000
vt 0.375000 0.725000
vt 0.150000 0.725000
vt 0.850000 0.725000
vt 0.625000 1.000000
vn 1.0000 0.0000 0.0071
vn -0.0072 0.0000 1.0000
vn -1.0000 0.0000 -0.0071
vn 0.0071 0.0000 -1.0000
vn 0.0000 -1.0000 -0.0000
vn 0.0000 1.0000 -0.0000
vn -1.0000 0.0000 -0.0072
vn -0.0071 0.0000 1.0000
vn 0.0072 0.0000 -1.0000
s off
f 51/53/17 49/54/17 50/55/17
f 52/56/18 53/57/18 49/54/18
f 62/58/19 64/59/19 61/60/19
f 46/61/20 50/62/20 45/63/20
f 61/60/21 41/64/21 43/65/21
f 44/66/22 63/67/22 62/58/22
f 57/68/21 50/69/21 49/70/21
f 59/71/22 52/72/22 51/73/22
f 57/68/21 53/57/21 47/74/21
f 60/75/22 54/76/22 52/72/22
f 47/74/23 54/76/23 48/77/23
f 55/78/19 45/63/19 56/79/19
f 58/80/21 45/63/21 50/69/21
f 59/71/22 46/61/22 55/78/22
f 41/64/17 57/68/17 43/65/17
f 44/66/17 59/71/17 42/81/17
f 43/65/24 47/74/24 61/60/24
f 44/66/24 48/77/24 60/75/24
f 61/60/24 48/77/24 62/58/24
f 63/67/25 56/79/25 64/59/25
f 41/64/20 56/79/20 58/80/20
f 42/81/20 55/78/20 63/67/20
f 51/53/17 52/56/17 49/54/17
f 52/56/24 54/76/24 53/57/24
f 62/58/19 63/67/19 64/59/19
f 46/61/25 51/82/25 50/62/25
f 61/60/21 64/59/21 41/64/21
f 44/66/22 42/81/22 63/67/22
f 57/68/21 58/80/21 50/69/21
f 59/71/22 60/75/22 52/72/22
f 57/68/21 49/70/21 53/57/21
f 60/75/22 48/77/22 54/76/22
f 47/74/23 53/57/23 54/76/23
f 55/78/19 46/61/19 45/63/19
f 58/80/21 56/79/21 45/63/21
f 59/71/22 51/73/22 46/61/22
f 41/64/17 58/80/17 57/68/17
f 44/66/17 60/75/17 59/71/17
f 43/65/24 57/68/24 47/74/24
f 44/66/24 62/58/24 48/77/24
f 61/60/24 47/74/24 48/77/24
f 63/67/25 55/78/25 56/79/25
f 41/64/20 64/59/20 56/79/20
f 42/81/20 59/71/20 55/78/20
o Cube.011_Cube.013
v -2.828324 -2.000000 -24.020836
v -2.854064 0.000000 -20.420929
v -3.057123 -2.000000 7.978345
v -3.057123 0.000000 7.978345
v -4.828273 -2.000000 -24.035137
v -4.828273 0.000000 -24.035137
v -5.445519 -2.000000 -7.639131
v -4.945532 0.000000 -7.635556
v -2.354077 -2.000000 -20.417355
v -2.828324 0.000000 -24.020836
v -2.945584 0.000000 -7.621256
v -2.445596 -2.000000 -7.617682
v -5.057072 -2.000000 7.964046
v -5.057072 0.000000 7.964046
v -4.854013 0.000000 -20.435228
v -5.354000 -2.000000 -20.438805
v -2.945584 -2.000000 -7.621256
v -2.854064 -2.000000 -20.420929
v -4.854013 -2.000000 -20.435228
v -4.945532 -2.000000 -7.635556
v -2.354077 0.500000 -20.417355
v -2.445596 0.500000 -7.617682
v -5.445519 0.500000 -7.639131
v -5.354000 0.500000 -20.438805
vt 0.625000 0.075000
vt 0.375000 0.175000
vt 0.375000 0.075000
vt 0.625000 0.250000
vt 0.375000 0.500000
vt 0.375000 0.250000
vt 0.625000 0.575000
vt 0.375000 0.675000
vt 0.375000 0.575000
vt 0.625000 0.750000
vt 0.375000 1.000000
vt 0.375000 0.750000
vt 0.375000 0.575000
vt 0.125000 0.675000
vt 0.125000 0.575000
vt 0.875000 0.575000
vt 0.625000 0.675000
vt 0.375000 0.075000
vt 0.625000 0.000000
vt 0.625000 0.075000
vt 0.625000 0.175000
vt 0.375000 0.175000
vt 0.625000 0.575000
vt 0.875000 0.500000
vt 0.875000 0.575000
vt 0.625000 0.500000
vt 0.625000 0.675000
vt 0.375000 0.675000
vt 0.125000 0.750000
vt 0.875000 0.675000
vt 0.875000 0.675000
vt 0.625000 0.175000
vt 0.625000 1.000000
vt 0.375000 0.000000
vt 0.125000 0.500000
vt 0.875000 0.750000
vn 1.0000 0.0000 0.0071
vn -0.0071 0.0000 1.0000
vn -1.0000 0.0000 -0.0071
vn 0.0072 0.0000 -1.0000
vn 0.0000 -1.0000 0.0000
vn 0.0000 1.0000 0.0000
vn -1.0000 0.0000 -0.0072
vn 0.0071 0.0000 -1.0000
vn -0.0072 0.0000 1.0000
s off
f 85/83/26 76/84/26 73/85/26
f 68/86/27 77/87/27 67/88/27
f 87/89/28 80/90/28 71/91/28
f 70/92/29 65/93/29 69/94/29
f 84/95/30 82/96/30 81/97/30
f 86/98/31 88/99/31 87/89/31
f 82/100/26 74/101/26 66/102/26
f 75/103/26 67/88/26 81/104/26
f 81/97/30 77/87/30 84/95/30
f 72/105/31 68/106/31 75/107/31
f 84/95/28 78/108/28 72/105/28
f 79/109/32 69/94/32 83/110/32
f 83/110/30 65/111/30 82/96/30
f 66/112/31 70/92/31 79/109/31
f 76/84/30 82/100/30 73/85/30
f 80/90/30 84/95/30 71/91/30
f 73/85/33 66/102/33 85/83/33
f 76/84/34 75/103/34 81/104/34
f 87/89/34 75/107/34 86/98/34
f 71/91/34 72/105/34 87/89/34
f 80/90/33 79/109/33 83/110/33
f 85/113/33 79/109/33 88/99/33
f 85/83/26 86/114/26 76/84/26
f 68/86/27 78/108/27 77/87/27
f 87/89/28 88/99/28 80/90/28
f 70/92/29 74/115/29 65/93/29
f 84/95/30 83/110/30 82/96/30
f 86/98/31 85/113/31 88/99/31
f 82/100/26 65/116/26 74/101/26
f 75/103/26 68/86/26 67/88/26
f 81/97/30 67/117/30 77/87/30
f 72/105/31 78/108/31 68/106/31
f 84/95/28 77/87/28 78/108/28
f 79/109/32 70/92/32 69/94/32
f 83/110/30 69/94/30 65/111/30
f 66/112/31 74/118/31 70/92/31
f 76/84/30 81/104/30 82/100/30
f 80/90/30 83/110/30 84/95/30
f 73/85/33 82/100/33 66/102/33
f 76/84/27 86/114/27 75/103/27
f 87/89/27 72/105/27 75/107/27
f 71/91/27 84/95/27 72/105/27
f 80/90/29 88/99/29 79/109/29
f 85/113/29 66/112/29 79/109/29
